<svg xmlns="http://www.w3.org/2000/svg" viewBox="0 0 128 128" width="128" height="128">
  <defs>
    <linearGradient id="icoGrad" x1="0%" y1="0%" x2="100%" y2="100%">
      <stop offset="0%" style="stop-color:#00e050;stop-opacity:1" />
      <stop offset="100%" style="stop-color:#009933;stop-opacity:1" />
    </linearGradient>
  </defs>
  <rect width="128" height="128" rx="28" fill="#1a1a2e"/>
  <g transform="translate(64,64) scale(0.35)">
    <path d="M 0,-160 A 160,160 0 0,1 138.6,80 A 100,100 0 0,0 0,-100"
          fill="none" stroke="url(#icoGrad)" stroke-width="32" stroke-linecap="round"/>
    <path d="M 0,160 A 160,160 0 0,1 -138.6,-80 A 100,100 0 0,0 0,100"
          fill="none" stroke="url(#icoGrad)" stroke-width="32" stroke-linecap="round"/>
    <path d="M 0,-70 A 70,70 0 0,1 60.6,35 A 35,35 0 0,0 0,-35"
          fill="none" stroke="url(#icoGrad)" stroke-width="24" stroke-linecap="round" opacity="0.7"/>
    <path d="M 0,70 A 70,70 0 0,1 -60.6,-35 A 35,35 0 0,0 0,35"
          fill="none" stroke="url(#icoGrad)" stroke-width="24" stroke-linecap="round" opacity="0.7"/>
    <circle cx="0" cy="0" r="14" fill="url(#icoGrad)"/>
  </g>
</svg>
